PathFileType	4	(X/Y/Z)	C:/Users/empri/Downloads/Take 2024-05-09 02.19.22 PM.trc
DataRate	CameraRate	NumFrames	NumMarkers	Units	OrigDataRate	OrigDataStartFrame	OrigNumFrames
240	240	44	9	mm	240	726	830
Frame#	Time	C7	CLAV	RELB	RFIN	RFRM	RSHO	RUPA	RWRA	RWRB
X1	Y1	Z1	X2	Y2	Z2	X3	Y3	Z3	X4	Y4	Z4	X5	Y5	Z5	X6	Y6	Z6	X7	Y7	Z7	X8	Y8	Z8	X9	Y9	Z9
726	3.025	-123.215	1541.57	-35.5878	35.5846	1366.05	-133.539	102.134	1143.32	152.536	155.3	818.117	103.352	92.5299	1020.92	180.226	31.9755	1482.29	75.2178	70.8514	1322.49	141.565	117.632	897.189	92.0225	65.7183	885.166	172.862
727	3.029	-123.195	1541.56	-35.5907	35.6205	1366.05	-133.509	101.804	1143.22	152.698	154.673	818	103.789	92.0895	1020.88	180.449	31.9609	1482.26	75.2701	70.6966	1322.44	141.673	117.111	897.032	92.3635	65.1888	885.124	173.098
728	3.033	-123.186	1541.57	-35.6003	35.6677	1366.05	-133.478	101.483	1143.18	152.882	154.127	817.889	104.171	91.633	1020.85	180.703	31.9351	1482.23	75.3155	70.5484	1322.38	141.784	116.697	896.989	92.6993	64.6748	885.113	173.332
729	3.038	-123.176	1541.56	-35.6112	35.737	1366.05	-133.438	101.109	1143.11	153.1	153.534	817.749	104.616	91.0798	1020.82	180.95	31.8977	1482.19	75.3808	70.3579	1322.32	141.917	116.198	896.891	93.0541	63.8919	885.231	173.68
730	3.042	-123.163	1541.55	-35.6187	35.7884	1366.05	-133.403	100.775	1143.03	153.282	153.091	817.62	104.94	90.6634	1020.79	181.142	31.8651	1482.16	75.4325	70.2	1322.28	142.024	115.763	896.79	93.3535	63.4194	885.2	173.88
731	3.046	-123.154	1541.55	-35.6267	35.8274	1366.05	-133.357	100.46	1142.98	153.468	152.635	817.532	105.249	90.2657	1020.75	181.331	31.8266	1482.14	75.4875	70.0479	1322.26	142.136	115.419	896.747	93.6105	62.9454	885.104	174.063
732	3.05	-123.145	1541.55	-35.6392	35.8638	1366.05	-133.314	100.199	1142.93	153.621	152.198	817.494	105.54	89.908	1020.71	181.505	31.7808	1482.12	75.541	69.909	1322.2	142.238	115.071	896.732	93.823	62.4688	885.016	174.234
733	3.054	-123.135	1541.55	-35.6407	35.8996	1366.05	-133.272	99.9353	1142.87	153.76	151.798	817.447	105.786	89.5313	1020.68	181.671	31.7337	1482.11	75.5984	69.7669	1322.18	142.34	114.743	896.683	94.0461	61.9477	885.004	174.327
734	3.058	-123.125	1541.55	-35.6565	35.9312	1366.05	-133.234	99.6918	1142.82	153.905	151.443	817.393	106.02	89.1482	1020.63	181.828	31.6893	1482.08	75.6596	69.608	1322.15	142.437	114.394	896.619	94.2581	61.5333	884.959	174.427
735	3.063	-123.119	1541.55	-35.6766	35.9719	1366.04	-133.184	99.3902	1142.78	154.104	151.092	817.346	106.36	88.6824	1020.59	182.014	31.6273	1482.05	75.7368	69.4153	1322.12	142.569	114.061	896.566	94.52	61.0585	884.929	174.524
736	3.067	-123.117	1541.55	-35.6967	35.9947	1366.03	-133.14	99.1392	1142.74	154.26	150.856	817.354	106.612	88.344	1020.58	182.156	31.5644	1482.03	75.8402	69.2522	1322.1	142.683	113.867	896.568	94.6861	60.705	884.894	174.6
737	3.071	-123.109	1541.55	-35.7134	36.0216	1366.02	-133.107	98.8939	1142.7	154.397	150.665	817.356	106.823	88.0325	1020.56	182.297	31.5125	1482.02	75.8899	69.0948	1322.08	142.782	113.684	896.549	94.8362	60.3197	884.891	174.687
738	3.075	-123.107	1541.55	-35.7283	36.0497	1366.01	-133.072	98.6703	1142.67	154.527	150.477	817.286	107.029	87.7433	1020.56	182.403	31.4676	1482	75.9432	68.9491	1322.04	142.884	113.526	896.547	94.9694	59.9803	884.872	174.711
739	3.079	-123.096	1541.55	-35.745	36.0728	1366	-133.031	98.4104	1142.62	154.668	150.305	817.285	107.179	87.462	1020.54	182.51	31.4196	1481.99	75.9922	68.7713	1322	142.996	113.393	896.531	95.0846	59.6077	884.875	174.718
740	3.083	-123.095	1541.56	-35.7658	36.1045	1365.99	-132.992	98.1862	1142.6	154.769	150.165	817.284	107.347	87.161	1020.52	182.611	31.364	1481.98	76.0433	68.6278	1321.96	143.101	113.295	896.528	95.2034	59.3185	884.821	174.689
741	3.087	-123.095	1541.56	-35.7786	36.1347	1365.99	-132.952	97.9707	1142.55	154.871	150.067	817.286	107.508	86.8532	1020.48	182.694	31.2894	1481.95	76.0956	68.4276	1321.92	143.17	113.228	896.552	95.2965	59.0588	884.754	174.65
742	3.092	-123.095	1541.57	-35.8015	36.1743	1365.99	-132.905	97.7113	1142.51	155.021	149.981	817.29	107.684	86.5213	1020.42	182.763	31.2208	1481.93	76.1588	68.2603	1321.88	143.264	113.172	896.578	95.38	58.7776	884.661	174.566
743	3.096	-123.1	1541.57	-35.8185	36.2058	1366	-132.864	97.4936	1142.49	155.135	149.961	817.308	107.789	86.295	1020.37	182.798	31.1511	1481.93	76.2157	68.1491	1321.85	143.33	113.161	896.603	95.4269	58.5662	884.597	174.466
744	3.1	-123.098	1541.59	-35.838	36.2379	1366.01	-132.829	97.2989	1142.47	155.199	149.945	817.332	107.876	86.0983	1020.34	182.813	31.0907	1481.93	76.2672	68.1214	1321.87	143.419	113.152	896.625	95.452	58.3651	884.547	174.326
745	3.104	-123.094	1541.61	-35.8483	36.2584	1366.01	-132.78	97.1461	1142.46	155.261	149.953	817.346	107.957	85.9039	1020.31	182.828	31.0305	1481.94	76.3145	67.9979	1321.85	143.491	113.157	896.638	95.4691	58.1806	884.513	174.201
746	3.108	-123.093	1541.61	-35.862	36.2812	1366.01	-132.741	96.9916	1142.43	155.304	149.975	817.361	108.014	85.7417	1020.27	182.829	30.9669	1481.93	76.3615	67.8813	1321.86	143.583	113.176	896.644	95.4695	58.028	884.464	174.076
747	3.112	-123.099	1541.61	-35.871	36.3102	1366	-132.69	96.8721	1142.4	155.342	150.023	817.376	108.083	85.5915	1020.22	182.819	30.8901	1481.91	76.4372	67.7749	1321.83	143.657	113.204	896.633	95.4684	57.8778	884.41	173.943
748	3.117	-123.112	1541.63	-35.8804	36.3418	1366.01	-132.645	96.7337	1142.38	155.379	150.103	817.41	108.14	85.4115	1020.19	182.79	30.8059	1481.92	76.5011	67.6383	1321.83	143.732	113.264	896.659	95.4348	57.6573	884.41	173.77
749	3.121	-123.122	1541.63	-35.8867	36.3652	1366.02	-132.606	96.6366	1142.37	155.396	150.182	817.449	108.162	85.296	1020.16	182.751	30.7441	1481.92	76.5425	67.4992	1321.81	143.768	113.323	896.692	95.3944	57.558	884.396	173.637
750	3.125	-123.121	1541.64	-35.891	36.3883	1366.02	-132.565	96.5604	1142.36	155.405	150.269	817.487	108.163	85.21	1020.14	182.718	30.6968	1481.93	76.5818	67.4307	1321.8	143.808	113.392	896.712	95.345	57.4907	884.413	173.467
751	3.129	-123.131	1541.65	-35.8967	36.4024	1366.02	-132.528	96.4889	1142.35	155.399	150.374	817.51	108.164	85.1296	1020.15	182.669	30.6273	1481.96	76.64	67.3633	1321.8	143.84	113.466	896.73	95.2744	57.4377	884.414	173.323
752	3.133	-123.135	1541.67	-35.8999	36.4188	1366.02	-132.492	96.4256	1142.36	155.397	150.481	817.56	108.141	85.0602	1020.15	182.622	30.5806	1481.98	76.6882	67.2983	1321.8	143.864	113.559	896.746	95.1929	57.3984	884.404	173.193
753	3.138	-123.152	1541.67	-35.906	36.4407	1366.03	-132.435	96.3597	1142.36	155.38	150.634	817.62	108.09	84.9848	1020.13	182.548	30.5231	1481.99	76.7291	67.2229	1321.8	143.889	113.662	896.784	95.0623	57.3667	884.361	172.981
754	3.142	-123.162	1541.68	-35.9132	36.4586	1366.03	-132.403	96.311	1142.36	155.36	150.786	817.679	108.045	84.9457	1020.1	182.472	30.4794	1482	76.7505	67.1722	1321.79	143.898	113.758	896.802	94.9711	57.3462	884.322	172.805
755	3.146	-123.179	1541.68	-35.9215	36.4719	1366.03	-132.377	96.2748	1142.36	155.339	150.949	817.741	107.985	84.9132	1020.1	182.4	30.4441	1482.01	76.7773	67.1292	1321.8	143.905	113.857	896.83	94.8803	57.3147	884.298	172.604
756	3.15	-123.193	1541.69	-35.9355	36.4753	1366.03	-132.368	96.2577	1142.37	155.302	151.083	817.812	107.924	84.9216	1020.1	182.318	30.4103	1482.03	76.8084	67.0895	1321.8	143.901	113.948	896.86	94.7823	57.3275	884.29	172.43
757	3.154	-123.202	1541.7	-35.9375	36.4901	1366.05	-132.329	96.2416	1142.37	155.263	151.225	817.914	107.8	84.9207	1020.11	182.221	30.3755	1482.04	76.8185	67.0511	1321.81	143.906	114.032	896.886	94.6793	57.3525	884.259	172.247
758	3.158	-123.214	1541.7	-35.9454	36.4954	1366.05	-132.298	96.2191	1142.38	155.22	151.358	817.965	107.713	84.9265	1020.13	182.129	30.3433	1482.05	76.8455	67.0235	1321.81	143.908	114.125	896.922	94.582	57.3853	884.235	172.068
759	3.163	-123.232	1541.7	-35.9444	36.5114	1366.05	-132.267	96.2129	1142.39	155.162	151.527	818.061	107.609	84.9497	1020.13	182.002	30.2975	1482.07	76.8693	66.9211	1321.79	143.861	114.262	896.974	94.4421	57.4364	884.193	171.868
760	3.167	-123.254	1541.71	-35.951	36.5168	1366.05	-132.252	96.2122	1142.41	155.112	151.676	818.132	107.515	84.9756	1020.13	181.91	30.268	1482.08	76.8754	66.9038	1321.81	143.861	114.412	897.035	94.307	57.4885	884.174	171.715
761	3.171	-123.269	1541.72	-35.9529	36.5162	1366.06	-132.236	96.2239	1142.43	155.057	151.809	818.197	107.41	85.0047	1020.13	181.818	30.2486	1482.11	76.8886	66.8901	1321.82	143.851	114.562	897.139	94.1511	57.5429	884.182	171.576
762	3.175	-123.274	1541.73	-35.9561	36.5029	1366.07	-132.228	96.2617	1142.44	155.003	151.963	818.261	107.283	85.0589	1020.13	181.728	30.2269	1482.14	76.8995	66.8864	1321.83	143.842	114.689	897.192	94.0279	57.6181	884.207	171.444
763	3.179	-123.281	1541.74	-35.9566	36.499	1366.06	-132.212	96.2927	1142.45	154.943	152.105	818.334	107.152	85.1291	1020.14	181.64	30.2104	1482.16	76.9082	66.8995	1321.84	143.832	114.807	897.238	93.9201	57.7163	884.223	171.304
764	3.183	-123.293	1541.74	-35.9603	36.4945	1366.06	-132.202	96.3275	1142.47	154.894	152.262	818.39	107.022	85.1798	1020.16	181.552	30.2018	1482.18	76.9232	66.8941	1321.86	143.83	114.925	897.284	93.8026	57.8263	884.218	171.156
765	3.188	-123.303	1541.75	-35.9671	36.4833	1366.05	-132.195	96.3669	1142.49	154.834	152.468	818.467	106.815	85.2465	1020.15	181.448	30.1811	1482.2	76.9183	66.9029	1321.88	143.816	115.065	897.338	93.6472	57.9554	884.278	170.94
766	3.192	-123.312	1541.75	-35.9698	36.4842	1366.05	-132.192	96.4156	1142.49	154.781	152.634	818.496	106.635	85.3085	1020.14	181.347	30.1734	1482.21	76.9125	66.9173	1321.88	143.789	115.143	897.326	93.4819	58.0929	884.256	170.777
767	3.196	-123.323	1541.75	-35.9777	36.4779	1366.06	-132.195	96.4556	1142.51	154.735	152.81	818.557	106.45	85.3847	1020.14	181.255	30.1667	1482.23	76.9003	66.9366	1321.9	143.763	115.282	897.385	93.3383	58.3002	884.189	170.588
768	3.2	-123.325	1541.76	-35.9827	36.472	1366.07	-132.203	96.4981	1142.53	154.682	152.976	818.619	106.266	85.4531	1020.15	181.168	30.1649	1482.25	76.8868	66.9539	1321.92	143.752	115.418	897.455	93.1799	58.4311	884.193	170.405
769	3.204	-123.333	1541.77	-35.9895	36.4712	1366.08	-132.213	96.5411	1142.55	154.641	153.138	818.695	106.046	85.5348	1020.14	181.079	30.1681	1482.26	76.8686	66.9843	1321.94	143.72	115.559	897.498	93.023	58.5627	884.17	170.241
